<svg xmlns="http://www.w3.org/2000/svg" version="1.1" xmlns:xlink="http://www.w3.org/1999/xlink" xmlns:svgjs="http://svgjs.dev/svgjs" width="1000" height="1000" viewBox="0 0 1000 1000"><rect width="1000" height="1000" fill="#ffffff"></rect><g transform="matrix(0.7,0,0,0.7,149.57576797337276,418.29772379939493)"><svg viewBox="0 0 396 93" data-background-color="#ffffff" preserveAspectRatio="xMidYMid meet" height="234" width="1000" xmlns="http://www.w3.org/2000/svg" xmlns:xlink="http://www.w3.org/1999/xlink"><defs></defs><g id="tight-bounds" transform="matrix(1,0,0,1,0.2399941179205598,-0.11226076522419248)"><svg viewBox="0 0 395.52 93.2245215304484" height="93.2245215304484" width="395.52"><g><svg viewBox="0 0 550.408885867803 129.73201110217718" height="93.2245215304484" width="395.52"><g transform="matrix(1,0,0,1,154.88888586780294,38.22535300103504)"><svg viewBox="0 0 395.52 53.281305100107105" height="53.281305100107105" width="395.52"><g><svg viewBox="0 0 395.52 53.281305100107105" height="53.281305100107105" width="395.52"><g><svg viewBox="0 0 395.52 53.281305100107105" height="53.281305100107105" width="395.52"><g transform="matrix(1,0,0,1,0,0)"><svg width="395.52" viewBox="1.559999942779541 -38.22999954223633 296.29998779296875 39.90999984741211" height="53.281305100107105" data-palette-color="#6b9080"><path d="M27.47-33.89L35.08-35.94Q35.21-35.96 35.31-35.97 35.42-35.99 35.52-35.99L35.52-35.99Q35.96-35.99 36.23-35.71 36.5-35.42 36.6-34.72L36.6-34.72Q36.65-34.28 36.76-33.48 36.87-32.69 37-31.73 37.13-30.76 37.29-29.74 37.45-28.71 37.57-27.84 37.7-26.98 37.79-26.35 37.89-25.73 37.92-25.56L37.92-25.56Q38.45-21.24 38.87-18.63 39.28-16.02 39.45-14.77L39.45-14.77 41.09-1.56 40.84-0.81Q40.8-0.63 40.21-0.39 39.62-0.15 38.79 0.13 37.96 0.42 36.99 0.68 36.01 0.95 35.18 1.17 34.35 1.39 33.78 1.53 33.2 1.66 33.18 1.66L33.18 1.66Q32.59 1.66 32.25 0.81 31.91-0.05 31.69-1.37 31.47-2.69 31.34-4.25 31.2-5.81 31.03-7.25L31.03-7.25Q30.88-8.45 30.76-9.67 30.64-10.89 30.49-12.16L30.49-12.16 29.54-19.29 20.48-2.71Q20.07-2.12 19.65-1.87 19.24-1.61 18.87-1.61L18.87-1.61Q18.33-1.61 18.03-1.93 17.72-2.25 17.6-2.71L17.6-2.71Q17.14-4.25 16.81-5.31 16.48-6.37 16.2-7.25 15.92-8.13 15.67-8.96 15.43-9.79 15.12-10.88 14.82-11.96 14.44-13.44 14.06-14.92 13.53-17.07L13.53-17.07 12.77-13.55 9.25 1.37Q9.18 1.66 8.64 1.66L8.64 1.66Q8.13 1.66 7.24 1.46 6.35 1.27 5.38 0.99 4.42 0.71 3.5 0.4 2.59 0.1 2.05-0.15L2.05-0.15Q1.93-0.2 1.75-0.38 1.56-0.56 1.56-0.95L1.56-0.95Q1.56-1.05 1.64-1.37 1.71-1.68 1.82-2.11 1.93-2.54 2.06-2.98 2.2-3.42 2.32-3.76L2.32-3.76Q2.64-4.59 2.89-5.71 3.15-6.84 3.37-7.98 3.59-9.13 3.77-10.18 3.96-11.23 4.13-11.94L4.13-11.94 7.13-25.95 8.03-29.91Q8.2-30.66 8.36-31.38 8.52-32.1 8.64-32.69 8.76-33.28 8.84-33.64 8.91-34.01 8.91-34.06L8.91-34.06 15.01-35.94Q15.36-35.94 15.61-35.88 15.87-35.82 15.94-35.47L15.94-35.47 20.8-19.85 27.47-33.89ZM55.3-16.65L55.3-16.65Q55.3-14.89 55.67-13.12 56.05-11.35 56.93-9.94 57.81-8.52 59.25-7.64 60.69-6.76 62.81-6.76L62.81-6.76Q64.45-6.86 65.68-7.43 66.92-8.01 67.81-8.92 68.7-9.84 69.28-11.02 69.87-12.21 70.21-13.51 70.55-14.82 70.69-16.19 70.82-17.55 70.82-18.82L70.82-18.82Q70.82-20.56 70.36-22.18 69.89-23.8 68.97-25.05 68.04-26.29 66.66-27.05 65.28-27.81 63.45-27.81L63.45-27.81Q62.01-27.81 60.85-27.27 59.69-26.73 58.79-25.84 57.88-24.95 57.24-23.79 56.59-22.63 56.16-21.4 55.73-20.17 55.53-18.93 55.32-17.7 55.3-16.65ZM60.06 1.27L60.06 1.27Q56.39 1.27 53.51-0.1 50.63-1.46 48.64-3.8 46.65-6.13 45.59-9.19 44.53-12.26 44.53-15.67L44.53-15.67Q44.53-19.51 45.62-22.74 46.7-25.98 48.65-28.48 50.61-30.98 53.31-32.7 56-34.42 59.23-35.25L59.23-35.25Q59.52-35.25 59.68-35.72 59.84-36.18 59.96-36.74 60.08-37.3 60.25-37.77 60.42-38.23 60.74-38.23L60.74-38.23Q65.48-37.74 69.26-36.56 73.04-35.38 75.68-33.18 78.32-30.98 79.72-27.62 81.13-24.27 81.13-19.43L81.13-19.43Q81.13-16.33 80.37-13.6 79.61-10.86 78.24-8.56 76.88-6.25 74.96-4.43 73.04-2.61 70.7-1.34 68.36-0.07 65.66 0.6 62.96 1.27 60.06 1.27ZM105-14.43L105-32.71Q105.2-33.52 105.34-33.89 105.49-34.25 105.98-34.38L105.98-34.38 112.3-35.86Q112.59-35.96 112.93-35.96L112.93-35.96Q113.25-35.96 113.4-35.74 113.54-35.52 113.54-34.91L113.54-34.91Q113.4-34.33 113.3-33.12 113.2-31.91 113.15-30.47 113.11-29.03 113.08-27.58 113.06-26.12 113.06-25.05L113.06-25.05 113.06-23.71Q113.06-22.19 113.03-20.41 113.01-18.63 112.97-16.8 112.93-14.97 112.89-13.18 112.84-11.4 112.79-9.84L112.79-9.84 112.64-5.66Q112.62-5.54 112.62-5.44 112.62-5.35 112.62-5.25L112.62-5.25 112.62-4.88Q112.62-4.47 112.63-4.19 112.64-3.91 112.64-3.69L112.64-3.69Q112.64-3.44 112.6-3.25 112.57-3.05 112.42-2.87 112.28-2.69 112.02-2.49 111.76-2.29 111.32-2L111.32-2Q111.08-1.83 110.52-1.5 109.96-1.17 109.27-0.76 108.59-0.34 107.86 0.1 107.12 0.54 106.51 0.89 105.9 1.25 105.52 1.46 105.15 1.68 105.15 1.68L105.15 1.68 93.82-15.75 92.79-1.46Q92.77-1.27 92.71-1.05 92.65-0.83 92.38-0.71L92.38-0.71Q92.16-0.61 91.62-0.4 91.08-0.2 90.36 0.07 89.64 0.34 88.85 0.62 88.06 0.9 87.35 1.14 86.64 1.37 86.09 1.51 85.54 1.66 85.35 1.66L85.35 1.66Q84.98 1.66 84.74 1.46 84.49 1.27 84.49 0.76L84.49 0.76Q84.74-2.29 85.05-5.9 85.37-9.5 85.66-13.28 85.96-17.07 86.21-20.84 86.47-24.61 86.64-28L86.64-28Q86.64-28.1 86.34-28.65 86.03-29.2 85.65-29.85 85.27-30.49 84.97-31.07 84.66-31.64 84.66-31.79L84.66-31.79Q84.66-31.96 84.85-32.1 85.03-32.25 85.44-32.5L85.44-32.5 91.96-36.18Q92.04-36.18 92.17-36.21 92.3-36.23 92.4-36.23L92.4-36.23Q92.67-36.23 92.83-36.17 92.99-36.11 93.16-35.79L93.16-35.79 105-14.43ZM139.45-20.26L139.45-20.26Q139.35-19.92 139.08-19.3 138.81-18.68 138.46-17.9 138.1-17.11 137.7-16.22 137.3-15.33 136.91-14.43L136.91-14.43Q136.76-14.09 136.64-13.93 136.52-13.77 136.25-13.7 135.98-13.62 135.5-13.61 135.03-13.6 134.17-13.57L134.17-13.57 130.78-13.5 130.1-6.03 142.62-6.03 142.62-5.08Q142.57-5.03 142.2-4.43 141.84-3.83 141.35-3 140.86-2.17 140.32-1.33 139.79-0.49 139.42 0.02L139.42 0.02Q139.18 0.46 138.86 0.72 138.54 0.98 138.16 1.1 137.79 1.22 137.33 1.25 136.88 1.27 136.35 1.27L136.35 1.27Q134.15 1.27 131.77 1.17 129.39 1.07 127.02 0.93 124.65 0.78 122.39 0.6 120.13 0.42 118.21 0.22L118.21 0.22Q118.03 0.2 117.9 0.02 117.77-0.15 117.77-0.37L117.77-0.37Q117.67-0.37 117.9-0.78 118.13-1.2 118.55-1.86 118.96-2.51 119.46-3.36 119.96-4.2 120.43-5.05L120.43-5.05 120.82-10.55Q120.92-11.94 120.98-12.62 121.04-13.31 121.04-13.35L121.04-13.35Q119.57-13.38 118.85-13.5 118.13-13.62 118.13-14.04L118.13-14.04Q118.13-14.23 118.49-14.77 118.84-15.31 119.35-16 119.87-16.7 120.44-17.46 121.01-18.21 121.45-18.85L121.45-18.85 122.06-27.15 121.99-27.15Q121.45-27.12 121.01-27.11 120.57-27.1 120.21-27.1L120.21-27.1Q119.04-27.1 118.53-27.23 118.03-27.37 118.03-27.73L118.03-27.73Q118.03-27.91 118.33-28.44 118.62-28.98 119.06-29.68 119.5-30.37 119.99-31.14 120.48-31.91 120.87-32.57L120.87-32.57 122.33-35.06 132.54-35.06 144.57-35.94Q144.6-35.94 144.71-35.93 144.82-35.91 144.94-35.85 145.06-35.79 145.17-35.64 145.28-35.5 145.28-35.23L145.28-35.23 144.91-33.96Q144.74-33.42 144.5-32.82 144.26-32.23 143.96-31.59L143.96-31.59 142.89-28.76Q142.72-28.34 142.5-28.13 142.28-27.91 141.57-27.88L141.57-27.88Q139.71-27.83 137.43-27.72 135.15-27.61 132.19-27.51L132.19-27.51Q132.1-27.17 132.1-26.97 132.1-26.76 132.05-26.17L132.05-26.17 131.93-25.05Q131.88-24.27 131.78-23.36 131.68-22.46 131.54-21.14L131.54-21.14Q132.78-21.19 133.96-21.24 135.15-21.29 136.13-21.33 137.1-21.36 137.82-21.39 138.54-21.41 138.84-21.41L138.84-21.41Q139.03-21.41 139.27-21.26 139.52-21.12 139.52-20.7L139.52-20.7Q139.52-20.51 139.45-20.26ZM146.13-32.52L146.13-32.52Q146.28-32.62 146.63-32.78 146.99-32.93 147.46-33.13 147.94-33.33 148.49-33.56 149.04-33.79 149.6-34.01L149.6-34.01 152.43-35.13Q152.75-35.28 153.02-35.28L153.02-35.28Q153.21-35.28 153.44-35.17 153.68-35.06 153.97-34.77L153.97-34.77 159.61-23.83 159.76-24.19 162.17-28.66Q162.64-29.49 163.09-30.3 163.54-31.1 163.89-31.74 164.25-32.37 164.49-32.76 164.74-33.15 164.78-33.15L164.78-33.15 173.16-35.25Q173.45-35.33 173.65-35.33L173.65-35.33Q174.21-35.33 174.21-34.81L174.21-34.81Q174.18-34.69 174.16-34.48 174.14-34.28 174.01-34.03L174.01-34.03 166.84-20.73Q166.3-19.73 165.75-18.73 165.2-17.72 164.69-16.83 164.17-15.94 163.77-15.21 163.37-14.48 163.12-14.01L163.12-14.01 162.95-13.21 161.59-4.05Q161.51-3.64 161.46-3.37 161.42-3.1 161.33-2.93 161.24-2.76 161.11-2.64 160.98-2.51 160.73-2.39L160.73-2.39 153.8 1.25Q153.41 1.44 152.98 1.56 152.55 1.68 152.16 1.68L152.16 1.68Q151.75 1.68 151.45 1.5 151.16 1.32 151.16 0.9L151.16 0.9 151.16 0.81Q151.26-0.59 151.52-2.43 151.77-4.27 152.07-6.03L152.07-6.03 153.43-15.09Q153.04-15.92 152.41-17.29 151.77-18.65 151.04-20.24 150.31-21.83 149.51-23.51 148.72-25.2 148.02-26.7 147.33-28.2 146.78-29.35 146.23-30.49 145.96-31.03L145.96-31.03Q145.84-31.4 145.84-31.79L145.84-31.79Q145.84-32.01 145.9-32.21 145.96-32.42 146.13-32.52ZM169.54 1.03L169.54 0.93Q169.59-0.22 169.62-0.89 169.64-1.56 169.65-1.93 169.67-2.29 169.67-2.44 169.67-2.59 169.67-2.72 169.67-2.86 169.68-3.05 169.69-3.25 169.71-3.7 169.74-4.15 169.79-4.94 169.84-5.74 169.91-7.06L169.91-7.06Q169.96-7.86 170.07-8.17 170.18-8.47 170.62-8.54L170.62-8.54Q172.77-8.54 175.11-8.56 177.45-8.57 179.53-8.59L179.53-8.59Q179.75-8.59 179.89-8.47 180.04-8.35 180.04-8.01L180.04-8.01 179.36-0.34Q179.26 0.46 179.17 0.77 179.09 1.07 178.63 1.12L178.63 1.12Q176.55 1.15 174.36 1.17 172.18 1.2 169.81 1.2L169.81 1.2Q169.67 1.2 169.6 1.17 169.54 1.15 169.54 1.03L169.54 1.03ZM211.02-17.5L215.83-33.13Q215.95-33.57 216.1-33.85 216.24-34.13 216.76-34.25L216.76-34.25 223.96-35.91Q224.01-35.91 224.08-35.94 224.15-35.96 224.2-35.96L224.2-35.96Q224.55-35.96 224.68-35.67 224.81-35.38 224.81-35.11L224.81-35.11Q224.81-35.06 224.8-34.91 224.79-34.77 224.77-34.72L224.77-34.72 214.66-4Q214.27-3 214.01-2.38 213.75-1.76 213.5-1.35 213.24-0.95 212.91-0.68 212.58-0.42 212.03-0.15 211.48 0.12 210.65 0.48 209.82 0.83 208.55 1.44L208.55 1.44Q208.11 1.66 207.87 1.66L207.87 1.66Q207.48 1.66 207.28 1.37 207.09 1.07 206.97 0.71L206.97 0.71 202.79-14.16 197.57-3.39Q197.45-3.1 197.01-2.61 196.57-2.12 196.02-1.61 195.47-1.1 194.92-0.62 194.37-0.15 194.03 0.15L194.03 0.15Q193.71 0.42 193.36 0.68 193 0.95 192.64 1.17 192.27 1.39 191.94 1.53 191.61 1.66 191.32 1.66L191.32 1.66Q190.68 1.66 190.49 0.95L190.49 0.95 181.02-32.45Q180.97-32.64 180.91-32.84 180.84-33.03 180.84-33.2L180.84-33.2Q180.84-33.81 181.14-34.23 181.43-34.64 182.16-34.94 182.9-35.23 184.12-35.41 185.34-35.6 187.22-35.72L187.22-35.72Q188.1-35.84 188.69-35.89 189.29-35.94 189.71-35.94L189.71-35.94Q190.41-35.94 190.63-35.72 190.85-35.5 191.03-34.99L191.03-34.99 196.05-15.63 200.23-22.8 198.54-30.15Q198.4-30.74 198.42-31.03L198.42-31.03Q198.42-31.59 198.72-31.93 199.01-32.28 199.69-32.5 200.38-32.71 201.49-32.89 202.6-33.06 204.21-33.28L204.21-33.28Q204.92-33.37 205.43-33.42 205.94-33.47 206.31-33.47L206.31-33.47Q207.04-33.47 207.31-33.25 207.58-33.03 207.7-32.54L207.7-32.54 211.02-17.5ZM247.96-32.15L247.96-32.15Q247.96-33.03 248.11-33.36 248.27-33.69 248.76-33.81L248.76-33.81 257.16-35.84Q257.48-35.94 257.82-35.94L257.82-35.94Q258.16-35.94 258.28-35.73 258.41-35.52 258.41-34.89L258.41-34.89 258.11-31.05Q257.99-29.37 257.84-27.71 257.7-26.05 257.4-24.8L257.4-24.8 256.96-21.34Q256.77-19.8 256.6-18.01 256.43-16.21 256.23-13.99L256.23-13.99 255.09-1.95Q255.06-1.73 254.99-1.51 254.91-1.29 254.67-1.2L254.67-1.2Q254.5-1.12 253.88-0.88 253.25-0.63 252.4-0.32 251.55 0 250.57 0.35 249.59 0.71 248.71 1 247.83 1.29 247.15 1.49 246.47 1.68 246.22 1.68L246.22 1.68Q245.88 1.68 245.62 1.5 245.37 1.32 245.37 0.81L245.37 0.81Q245.37-2.15 245.71-5.24 246.05-8.33 246.32-11.38L246.32-11.38Q246.37-11.72 246.36-12.01 246.34-12.3 246.39-12.65L246.39-12.65 237.46-12.65 236.46-1.95Q236.43-1.73 236.37-1.53 236.31-1.32 236.04-1.2L236.04-1.2Q235.94-1.15 235.08-0.84 234.21-0.54 233.08-0.13 231.94 0.27 230.83 0.67 229.72 1.07 229.13 1.29L229.13 1.29Q228.84 1.42 228.41 1.55 227.99 1.68 227.57 1.68L227.57 1.68Q227.23 1.68 226.97 1.49 226.72 1.29 226.72 0.78L226.72 0.78Q226.72-0.39 226.8-1.89 226.89-3.39 227.01-5.04 227.13-6.69 227.3-8.42 227.47-10.16 227.64-11.84L227.64-11.84 227.69-12.55Q225.71-12.55 224.82-12.66 223.93-12.77 223.93-13.23L223.93-13.23Q223.93-13.55 224.3-14.06L224.3-14.06Q224.79-14.75 225.43-15.71 226.08-16.67 226.68-17.61 227.28-18.55 227.75-19.3 228.23-20.04 228.38-20.26L228.38-20.26 228.94-26.15Q228.94-26.2 228.99-26.88 229.04-27.56 229.11-28.5 229.18-29.44 229.27-30.44 229.35-31.45 229.43-32.15L229.43-32.15Q229.47-33.01 229.56-33.35 229.65-33.69 230.13-33.81L230.13-33.81 238.43-35.84Q238.75-35.94 239.09-35.94L239.09-35.94Q239.44-35.94 239.56-35.73 239.68-35.52 239.68-34.89L239.68-34.89Q239.51-33.13 239.41-31.69 239.31-30.25 239.2-29 239.09-27.76 238.97-26.64 238.85-25.51 238.63-24.34L238.63-24.34 238.14-20.56 247-20.65Q247.22-23.9 247.49-26.17 247.76-28.44 247.83-29.76L247.83-29.76Q247.91-31.01 247.93-31.54 247.96-32.08 247.96-32.15ZM272.03-16.65L272.03-16.65Q272.03-14.89 272.4-13.12 272.78-11.35 273.66-9.94 274.54-8.52 275.98-7.64 277.42-6.76 279.55-6.76L279.55-6.76Q281.18-6.86 282.41-7.43 283.65-8.01 284.54-8.92 285.43-9.84 286.02-11.02 286.6-12.21 286.94-13.51 287.28-14.82 287.42-16.19 287.55-17.55 287.55-18.82L287.55-18.82Q287.55-20.56 287.09-22.18 286.63-23.8 285.7-25.05 284.77-26.29 283.39-27.05 282.01-27.81 280.18-27.81L280.18-27.81Q278.74-27.81 277.58-27.27 276.42-26.73 275.52-25.84 274.61-24.95 273.97-23.79 273.32-22.63 272.89-21.4 272.47-20.17 272.26-18.93 272.05-17.7 272.03-16.65ZM276.79 1.27L276.79 1.27Q273.12 1.27 270.24-0.1 267.36-1.46 265.37-3.8 263.38-6.13 262.32-9.19 261.26-12.26 261.26-15.67L261.26-15.67Q261.26-19.51 262.35-22.74 263.43-25.98 265.39-28.48 267.34-30.98 270.04-32.7 272.73-34.42 275.96-35.25L275.96-35.25Q276.25-35.25 276.41-35.72 276.57-36.18 276.69-36.74 276.81-37.3 276.98-37.77 277.15-38.23 277.47-38.23L277.47-38.23Q282.21-37.74 285.99-36.56 289.77-35.38 292.41-33.18 295.05-30.98 296.45-27.62 297.86-24.27 297.86-19.43L297.86-19.43Q297.86-16.33 297.1-13.6 296.34-10.86 294.98-8.56 293.61-6.25 291.69-4.43 289.77-2.61 287.43-1.34 285.09-0.07 282.39 0.6 279.69 1.27 276.79 1.27Z" opacity="1" transform="matrix(1,0,0,1,0,0)" fill="#000000" class="undefined-text-0" data-fill-palette-color="primary" id="text-0"></path></svg></g></svg></g></svg></g></svg></g><g><svg viewBox="0 0 129.73201110217718 129.73201110217718" height="129.73201110217718" width="129.73201110217718"><g><svg></svg></g><g id="icon-0"><svg viewBox="0 0 129.73201110217718 129.73201110217718" height="129.73201110217718" width="129.73201110217718"><g><path d="M0 64.866c0-35.825 29.041-64.866 64.866-64.866 35.825 0 64.866 29.041 64.866 64.866 0 35.825-29.041 64.866-64.866 64.866-35.825 0-64.866-29.041-64.866-64.866zM64.866 124.927c33.171 0 60.061-26.89 60.061-60.061 0-33.171-26.89-60.061-60.061-60.061-33.171 0-60.061 26.89-60.061 60.061 0 33.171 26.89 60.061 60.061 60.061z" data-fill-palette-color="accent" fill="#000000" stroke="transparent"></path></g><g transform="matrix(1,0,0,1,27.328167528824686,36.07546453073358)"><svg viewBox="0 0 75.07567604452781 57.58108204071002" height="57.58108204071002" width="75.07567604452781"><g><svg xmlns="http://www.w3.org/2000/svg" xmlns:xlink="http://www.w3.org/1999/xlink" version="1.1" x="0" y="0" viewBox="25.318967819213867 31.071001052856445 49.36152648925781 37.85900115966797" enable-background="new 0 0 100 100" xml:space="preserve" height="57.58108204071002" width="75.07567604452781" class="icon-x-0" data-fill-palette-color="accent" id="x-0"><path d="M73.789 58.976c-1.182-2.047-3.386-3.318-5.751-3.318-0.987 0-1.958 0.235-2.849 0.661l-8.713-10.916c0.868-0.984 1.512-2.159 1.861-3.466 0.597-2.228 0.29-4.554-0.863-6.55-1.537-2.662-4.403-4.316-7.48-4.316-1.507 0-2.996 0.4-4.307 1.158-1.998 1.152-3.427 3.014-4.023 5.24-0.598 2.228-0.292 4.553 0.861 6.549 0.288 0.5 0.637 0.951 1.012 1.375l-8.727 10.926c-0.891-0.425-1.861-0.66-2.848-0.66-2.365 0-4.569 1.271-5.752 3.318-0.885 1.535-1.121 3.323-0.662 5.035 0.458 1.712 1.557 3.143 3.09 4.027 1.01 0.583 2.155 0.891 3.314 0.891 2.365 0 4.568-1.271 5.752-3.318 0.885-1.534 1.12-3.322 0.662-5.035-0.238-0.888-0.65-1.697-1.204-2.396l8.714-10.911c0.814 0.443 1.699 0.751 2.623 0.916v7.655c-0.634 0.148-1.249 0.379-1.817 0.707-3.169 1.829-4.258 5.896-2.429 9.064 1.182 2.047 3.386 3.317 5.751 3.317 1.159 0 2.305-0.308 3.313-0.89 1.534-0.886 2.632-2.316 3.091-4.028s0.224-3.5-0.663-5.035c-0.926-1.603-2.48-2.72-4.246-3.133v-7.655c0.917-0.163 1.805-0.469 2.629-0.918l8.712 10.914c-1.631 2.07-1.94 5.009-0.544 7.428 1.182 2.047 3.386 3.317 5.751 3.317 1.159 0 2.305-0.308 3.313-0.89 1.534-0.886 2.632-2.316 3.091-4.028S74.676 60.511 73.789 58.976z" fill="#000000" data-fill-palette-color="accent"></path></svg></g></svg></g></svg></g></svg></g></svg></g></svg><rect width="395.52" height="93.2245215304484" fill="none" stroke="none" visibility="hidden"></rect></g></svg></g></svg>